<svg id="Capa_1" data-name="Capa 1" xmlns="http://www.w3.org/2000/svg" viewBox="0 0 510.97 648.4"><defs><style>.cls-1{fill:#adc9c8;}.cls-2{fill:#f7e2e2;}.cls-3{fill:#2d7eaf;}.cls-13,.cls-4{fill:#4b9ad4;}.cls-5,.cls-7{fill:none;}.cls-5{stroke:#e73b3b;stroke-miterlimit:10;}.cls-6{fill:#e73b3b;}.cls-10,.cls-13,.cls-8,.cls-9{font-size:19px;}.cls-8{fill:#1d1d1b;font-family:FuturaBT-Heavy, Futura Hv BT;font-weight:800;}.cls-12,.cls-9{fill:#066;}.cls-10,.cls-13,.cls-9{font-family:FuturaBT-Book, Futura Bk BT;}.cls-10,.cls-11{fill:#af5a1b;}</style></defs><title>3</title><polyline class="cls-1" points="350.67 323.86 292.88 261.49 242.44 323.86"/><polyline class="cls-1" points="242.44 323.86 206.69 285.27 175.48 323.86"/><path class="cls-2" d="M-292-283" transform="translate(-48.03 -25.3)"/><polyline class="cls-1" points="165.01 99.82 222.79 37.45 273.24 99.82"/><polyline class="cls-1" points="273.24 99.82 308.99 61.24 340.2 99.82"/><polyline class="cls-1" points="117.78 99.82 145.93 69.43 170.51 99.82"/><polyline class="cls-1" points="370.96 204.07 302.36 130.03 253.48 204.07"/><polyline class="cls-1" points="259.09 203.64 223.34 152.06 192.13 203.64"/><polyline class="cls-1" points="108.88 258.21 139.15 215.24 167.48 258.21"/><polyline class="cls-1" points="367.49 201.39 382.62 158.31 400.97 201.39"/><polyline class="cls-1" points="383.37 359.99 398.5 316.91 416.84 359.99"/><path class="cls-3" d="M285.63,121.55c-.13-.14-6.91-.2-7.11-.21l-8.09-.33a12.7,12.7,0,0,1-4.7-1.24,7.83,7.83,0,0,1-2.33-1.46,3.45,3.45,0,0,1-.61-.76,1.47,1.47,0,0,1,.43-1.94,6.21,6.21,0,0,1,1.33-.92,13.85,13.85,0,0,1,6.74-1.55c2.62.12,5.24.22,7.86.33.21,0,5.52.36,5.68.22" transform="translate(-48.03 -25.3)"/><path class="cls-4" d="M246.75,225.16" transform="translate(-48.03 -25.3)"/><path class="cls-3" d="M213.37,271.86c0-.09-.09-.17-.15-.29l-.23.26q-5,5.84-10,11.68a.7.7,0,0,0-.12.45c.24,3.22.5,6.44.75,9.67a2,2,0,0,1,0,.25.47.47,0,0,1-.9.24c-.31-.63-.62-1.26-.92-1.89-1-2.08-2-4.17-3-6.25a1,1,0,0,0-.78-.4c-.07,0-.12.11-.18.16a3.73,3.73,0,0,1-.64.56,1.37,1.37,0,0,1-1.69-.34,1.43,1.43,0,0,1-.08-1.73.79.79,0,0,1,.12-.15c.34-.42.34-.43.08-.9a.42.42,0,0,0-.21-.16L188,280.73l-1.25-.38c-.39-.13-.56-.31-.53-.57s.21-.39.65-.43l9.89-.77a.76.76,0,0,0,.58-.29L207,266.92c.08-.08.19-.14.29-.22l-.07-.09-.92-.29" transform="translate(-48.03 -25.3)"/><polyline class="cls-1" points="140.78 204.07 155.91 161 180.25 204.07"/><path class="cls-3" d="M222.31,229.81a1,1,0,0,0-.84-.23c-.07,0-.1.12-.15.19a3.43,3.43,0,0,1-.52.67,1.37,1.37,0,0,1-1.72,0,1.43,1.43,0,0,1-.43-1.67l.09-.18c.25-.47.25-.49-.1-.9a.41.41,0,0,0-.24-.11l-7.76-.75-1.3-.13c-.41,0-.61-.18-.63-.44s.13-.43.55-.55l9.53-2.74a.75.75,0,0,0,.52-.41" transform="translate(-48.03 -25.3)"/><path class="cls-4" d="M237.72,227a.69.69,0,0,0,0,.47" transform="translate(-48.03 -25.3)"/><path class="cls-3" d="M239.45,229.7a.37.37,0,0,1,.24-.1l7.76-.76,1.3-.13c.41,0,.61-.18.63-.44s-.12-.43-.55-.55L239.3,225a.77.77,0,0,1-.51-.4" transform="translate(-48.03 -25.3)"/><path class="cls-4" d="M244.09,229c.06,0,.09.12.14.19" transform="translate(-48.03 -25.3)"/><path class="cls-4" d="M281.6,320.41l.39.87,7,15.25c.21.47.43.94.65,1.41a1.37,1.37,0,0,1-2.21,1.58l-9.43-9-10.08-9.65a.53.53,0,0,0-.46-.18c-2.63.06-5.26.11-7.89.18a13.23,13.23,0,0,1-4.69-.92,8.22,8.22,0,0,1-2.41-1.28,3.64,3.64,0,0,1-.66-.7,1.4,1.4,0,0,1,.22-1.92,5.32,5.32,0,0,1,1.2-1,13.1,13.1,0,0,1,6.38-1.92l7.67-.16a.64.64,0,0,0,.48-.22q9.3-9.72,18.61-19.46a1.4,1.4,0,0,1,2.25.13,1.35,1.35,0,0,1,.08,1.28L287.37,298,283.2,308.1c-.58,1.42-1.17,2.83-1.76,4.25,0,.09-.07.17-.12.3.14,0,.24,0,.35,0l15.36-.34a.72.72,0,0,0,.42-.2l6.71-7a1.45,1.45,0,0,1,.17-.18.47.47,0,0,1,.78.5c-.26.65-.53,1.3-.8,1.95l-2.64,6.41a1,1,0,0,0,.21.85.63.63,0,0,0,.24,0,3.88,3.88,0,0,1,.85.1,1.39,1.39,0,0,1,.87,1.49,1.42,1.42,0,0,1-1.23,1.21l-.19,0c-.54,0-.56,0-.73.54a.39.39,0,0,0,0,.26l3.26,7.08.54,1.19c.17.37.15.62-.07.77s-.43.11-.75-.2l-7.16-6.86a.75.75,0,0,0-.61-.24l-14.95.32a1.51,1.51,0,0,1-.35-.06Z" transform="translate(-48.03 -25.3)"/><polyline class="cls-5" points="198.97 290.7 148.97 273.7 184.97 191.71 222.57 98.71"/><polygon class="cls-6" points="225.12 103.31 224.18 103.67 222.43 99.07 217.96 101.16 217.53 100.25 222.98 97.7 225.12 103.31"/><path class="cls-7" d="M134.69,220.64" transform="translate(-48.03 -25.3)"/><text class="cls-8" transform="translate(93.69 248.86)">21 </text><path d="M171.81,280.18v-12.1a2.22,2.22,0,0,0-.05-.82.9.9,0,0,0-.54-.43c-.09,0-.32.27-.39.46a1.89,1.89,0,0,0,0,.63c0,2.57,0,5.14,0,7.7a2.12,2.12,0,0,1-.18,1.15,1.81,1.81,0,0,1-1.17.78,2,2,0,0,1-1.23-.7,1.76,1.76,0,0,1-.19-1.05c0-3.36,0-6.72,0-10.08a4.09,4.09,0,0,1,4.37-4.35c2.38,0,4.77,0,7.15,0a4,4,0,0,1,4.12,4.1q0,5.28,0,10.54c0,1.07-.53,1.63-1.44,1.59s-1.23-.51-1.23-1.49c0-2.72,0-5.44,0-8.15a2.21,2.21,0,0,0-.06-.82.71.71,0,0,0-.54-.32c-.12,0-.33.22-.37.37a3.2,3.2,0,0,0,0,.82V292.5a2,2,0,0,1-1.81,2.13,1.92,1.92,0,0,1-1.89-2.14c0-4.55,0-9.1,0-13.66a2.46,2.46,0,0,0,0-.72c-.06-.18-.28-.31-.42-.46-.14.16-.34.3-.4.49a2.46,2.46,0,0,0,0,.72c0,4.59,0,9.17,0,13.75a1.89,1.89,0,0,1-1,1.76,1.71,1.71,0,0,1-1.9-.07,1.9,1.9,0,0,1-.77-1.84Z" transform="translate(-48.03 -25.3)"/><path d="M179.15,256.86a3.28,3.28,0,0,1-6.56.11,3.28,3.28,0,1,1,6.56-.11Z" transform="translate(-48.03 -25.3)"/><text class="cls-8" transform="translate(176.33 84.61)">5 </text><path d="M242.81,115.93v-12.1a2.22,2.22,0,0,0-.05-.82.9.9,0,0,0-.54-.43c-.09,0-.32.27-.39.46a1.89,1.89,0,0,0,0,.63c0,2.57,0,5.14,0,7.7a2.12,2.12,0,0,1-.18,1.15,1.81,1.81,0,0,1-1.17.78,2,2,0,0,1-1.23-.7,1.76,1.76,0,0,1-.19-1c0-3.36,0-6.72,0-10.08a4.09,4.09,0,0,1,4.37-4.35c2.38,0,4.77,0,7.15,0a4,4,0,0,1,4.12,4.1q0,5.28,0,10.54c0,1.07-.53,1.63-1.44,1.59s-1.23-.51-1.23-1.49c0-2.72,0-5.44,0-8.15a2.21,2.21,0,0,0-.06-.82.71.71,0,0,0-.54-.32c-.12,0-.33.22-.37.37a3.2,3.2,0,0,0,0,.82v24.48a2,2,0,0,1-1.81,2.13,1.92,1.92,0,0,1-1.89-2.14c0-4.55,0-9.1,0-13.66a2.46,2.46,0,0,0,0-.72c-.06-.18-.28-.31-.42-.46-.14.16-.34.3-.4.49a2.46,2.46,0,0,0,0,.72c0,4.59,0,9.17,0,13.75a1.89,1.89,0,0,1-1,1.76,1.71,1.71,0,0,1-1.9-.07,1.9,1.9,0,0,1-.77-1.84Z" transform="translate(-48.03 -25.3)"/><path d="M250.15,92.61a3.28,3.28,0,0,1-6.56.11,3.28,3.28,0,1,1,6.56-.11Z" transform="translate(-48.03 -25.3)"/><path d="M51.81,393.36v-12.1a2.16,2.16,0,0,0-.05-.81.84.84,0,0,0-.54-.43c-.09,0-.32.27-.39.45a2,2,0,0,0,0,.64c0,2.57,0,5.13,0,7.7a2.12,2.12,0,0,1-.18,1.15,1.85,1.85,0,0,1-1.17.78,2,2,0,0,1-1.23-.71,1.74,1.74,0,0,1-.19-1c0-3.36,0-6.72,0-10.08a4.08,4.08,0,0,1,4.37-4.34h7.15a4,4,0,0,1,4.12,4.11c0,3.51,0,7,0,10.54,0,1.07-.53,1.63-1.44,1.58S61,390.28,61,389.31c0-2.72,0-5.44,0-8.16a2.16,2.16,0,0,0-.06-.81.72.72,0,0,0-.54-.33c-.12,0-.33.22-.37.38a3.19,3.19,0,0,0,0,.82v24.47a2,2,0,0,1-1.81,2.14,1.92,1.92,0,0,1-1.89-2.14c0-4.56,0-9.11,0-13.66a2.53,2.53,0,0,0,0-.73c-.06-.18-.28-.3-.42-.46-.14.17-.34.31-.4.49a2.53,2.53,0,0,0,0,.73c0,4.58,0,9.17,0,13.75a1.88,1.88,0,0,1-1,1.75,1.71,1.71,0,0,1-1.9-.07,1.9,1.9,0,0,1-.77-1.84Z" transform="translate(-48.03 -25.3)"/><path d="M59.15,370a3.28,3.28,0,0,1-6.56.12,3.28,3.28,0,0,1,6.56-.12Z" transform="translate(-48.03 -25.3)"/><text class="cls-8" transform="translate(27.34 367.29)">Fallecidos </text><text class="cls-8" transform="translate(365.99 16.29)">45 pasajeros </text><text class="cls-9" transform="translate(195.98 546.02)">8 no sobrevivieron en los 75 días</text><text class="cls-10" transform="translate(190.98 582.02)">16 sobrevivieron</text><circle class="cls-4" cx="97.47" cy="526.2" r="81.5"/><path class="cls-11" d="M149.9,470,145,551l22,79s37.82-1.2,55.51-55a80.16,80.16,0,0,0-8.9-67.88C203,490.43,184,474.38,149.9,470Z" transform="translate(-48.03 -25.3)"/><path class="cls-12" d="M150,470l-4.5,83.63L218,516S200,473,150,470Z" transform="translate(-48.03 -25.3)"/><text class="cls-13" transform="translate(195.75 495.32)">26 personas no sobrevivieron <tspan x="0" y="15">al impacto</tspan></text></svg>